<?xml version="1.0" encoding="UTF-8" standalone="no"?>
<!DOCTYPE svg PUBLIC "-//W3C//DTD SVG 1.1//EN" "http://www.w3.org/Graphics/SVG/1.1/DTD/svg11.dtd">
<svg width="100%" height="100%" viewBox="0 0 140 120" version="1.1" xmlns="http://www.w3.org/2000/svg" xmlns:xlink="http://www.w3.org/1999/xlink" xml:space="preserve" xmlns:serif="http://www.serif.com/" style="fill-rule:evenodd;clip-rule:evenodd;stroke-miterlimit:10;">
    <g transform="matrix(1,0,0,1,-1198.51,-279)">
        <g id="Group_91045">
            <g id="Group_85377">
                <g id="Subtraction_14" transform="matrix(1,0,0,1,-17361,8792.41)">
                    <path d="M18664,-8412.65L18577.2,-8412.65C18567.5,-8412.65 18559.5,-8420.63 18559.5,-8430.33L18559.5,-8478.47C18559.5,-8482.27 18560.7,-8485.97 18563,-8489.01C18566.4,-8487.93 18568.3,-8486.93 18569.7,-8485.56C18569.7,-8485.53 18569.8,-8485.51 18569.8,-8485.48L18569.8,-8485.46C18569.8,-8485.45 18569.8,-8485.44 18569.8,-8485.43C18568,-8483.55 18567.1,-8481.06 18567.1,-8478.47L18567.1,-8430.33C18567.1,-8424.77 18571.6,-8420.2 18577.2,-8420.2L18664.1,-8420.2C18662.6,-8419.61 18661.5,-8418.09 18661.5,-8416.4C18661.5,-8414.75 18662.5,-8413.27 18664,-8412.65L18664,-8412.65ZM18681.5,-8413.9L18681.5,-8418.9C18682.9,-8418.27 18684.4,-8417.77 18685.8,-8417.41C18686.3,-8417.28 18686.6,-8416.87 18686.6,-8416.41C18686.6,-8415.94 18686.3,-8415.53 18685.8,-8415.41C18684.4,-8415.04 18682.9,-8414.54 18681.5,-8413.91L18681.5,-8413.9ZM18689,-8414.29C18689.4,-8414.92 18689.6,-8415.65 18689.6,-8416.4C18689.6,-8418.21 18688.4,-8419.81 18686.6,-8420.29L18686.6,-8420.29C18686,-8420.46 18685.5,-8420.62 18684.9,-8420.78C18689,-8422.22 18691.7,-8426.05 18691.7,-8430.32L18691.7,-8478.47C18691.7,-8484.03 18687.1,-8488.6 18681.5,-8488.6L18677.6,-8488.6L18677.6,-8496.15L18681.5,-8496.15C18691.2,-8496.14 18699.2,-8488.17 18699.2,-8478.47L18699.2,-8430.32C18699.2,-8426.91 18698.2,-8423.56 18696.4,-8420.7C18694.6,-8417.91 18692,-8415.69 18689,-8414.29L18689,-8414.29ZM18668.1,-8414.51L18668.1,-8414.51C18667.4,-8414.77 18666.6,-8415.03 18665.3,-8415.4C18664.8,-8415.52 18664.5,-8415.93 18664.5,-8416.4C18664.5,-8416.86 18664.8,-8417.28 18665.3,-8417.4C18666.4,-8417.73 18667.3,-8418.01 18668.1,-8418.28L18668.1,-8414.5L18668.1,-8414.51ZM18573.1,-8487.75C18572.9,-8487.98 18572.7,-8488.18 18572.5,-8488.38C18571.2,-8489.69 18569.6,-8490.74 18567.9,-8491.46C18567.3,-8491.71 18566.7,-8491.95 18566.1,-8492.2C18567.6,-8493.45 18569.3,-8494.43 18571.2,-8495.1C18573.1,-8495.8 18575.2,-8496.15 18577.2,-8496.15L18577.2,-8488.6C18575.8,-8488.6 18574.4,-8488.31 18573.1,-8487.75L18573.1,-8487.75ZM18658.6,-8488.6L18590.8,-8488.6C18592,-8489 18593.3,-8489.4 18594.9,-8489.83C18596.4,-8490.28 18597.6,-8491.75 18597.6,-8493.4C18597.6,-8494.45 18597.1,-8495.45 18596.3,-8496.15L18658.6,-8496.15L18658.6,-8488.6ZM18582.8,-8488.6L18577.6,-8488.6L18577.6,-8496.15L18585.6,-8496.15C18586.1,-8495.87 18586.6,-8495.61 18587.2,-8495.34C18589,-8494.57 18590.9,-8493.92 18592.8,-8493.4C18588.5,-8492.17 18585.1,-8490.88 18582.8,-8488.6L18582.8,-8488.6Z" style="fill:rgb(138,29,95);fill-rule:nonzero;"/>
                </g>
                <g id="Group_85376" transform="matrix(1,0,0,1,1081.15,120)">
                    <path id="Path_97585" d="M204.653,271.288L204.653,255.994L197.106,255.994L197.106,271.288L177.32,271.288L177.32,255.994L169.773,255.994L169.773,271.288L156.213,271.288L156.213,278.835L218.213,278.835L218.213,271.288L204.653,271.288Z" style="fill:rgb(138,29,95);fill-rule:nonzero;"/>
                    <g transform="matrix(1,0,0,1,222.166,159.5)">
                        <g id="Group_85359">
                            <rect id="Rectangle_19317" x="0" y="0" width="7.547" height="79.75" style="fill:rgb(155,116,245);stroke:black;stroke-opacity:0;stroke-width:1px;"/>
                        </g>
                    </g>
                    <g transform="matrix(1,0,0,1,203.166,195)">
                        <g id="Group_85360">
                            <rect id="Rectangle_19318" x="0" y="0" width="7.547" height="44.25" style="fill:rgb(224,76,82);stroke:black;stroke-opacity:0;stroke-width:1px;stroke-miterlimit:4;"/>
                        </g>
                    </g>
                    <g transform="matrix(1,0,0,1,184.166,211)">
                        <g id="Group_85361">
                            <rect id="Rectangle_19319" x="0" y="0" width="7.547" height="28.287" style="fill:rgb(141,198,65);stroke:black;stroke-opacity:0;stroke-width:1px;stroke-miterlimit:4;"/>
                        </g>
                    </g>
                </g>
                <g id="Path_97591" transform="matrix(1,0,0,1,1142.13,308.775)">
                    <path d="M100.05,50.504L100.05,43.652C100.854,43.45 101.618,43.115 102.312,42.661C104.438,41.275 105.724,38.902 105.724,36.363C105.724,32.933 103.376,29.916 100.05,29.075L100.05,22.225C107.123,23.143 112.474,29.233 112.474,36.365C112.474,43.496 107.123,49.586 100.05,50.504ZM87.532,45.816C84.187,42.038 83.088,36.756 84.648,31.958L90.842,34.898C90.746,35.381 90.698,35.872 90.696,36.365C90.697,39.796 93.046,42.812 96.372,43.653L96.372,50.5C92.957,50.059 89.815,48.394 87.532,45.816ZM86.232,28.634C87.345,26.912 88.814,25.449 90.54,24.344C92.303,23.215 94.295,22.491 96.372,22.224L96.372,29.075C94.822,29.467 93.437,30.343 92.419,31.575L86.232,28.634Z" style="fill:rgb(224,76,82);fill-rule:nonzero;stroke:black;stroke-opacity:0;stroke-width:1px;stroke-miterlimit:4;"/>
                </g>
                <g id="Path_97592" transform="matrix(1,0,0,1,1184.88,222.708)">
                    <path d="M48.429,74.667C38.11,71.808 36.129,69.814 33.28,59.456C33.081,58.721 32.41,58.207 31.649,58.207C30.887,58.207 30.216,58.721 30.017,59.456C27.17,69.817 25.188,71.807 14.869,74.667C14.135,74.871 13.624,75.544 13.624,76.305C13.624,77.066 14.135,77.739 14.869,77.943C25.188,80.8 27.17,82.8 30.017,93.154C30.216,93.889 30.887,94.403 31.648,94.403C32.41,94.403 33.081,93.889 33.28,93.154C36.127,82.792 38.114,80.8 48.429,77.943C49.163,77.739 49.674,77.066 49.674,76.305C49.674,75.544 49.163,74.871 48.429,74.667Z" style="fill:rgb(141,198,65);fill-rule:nonzero;"/>
                </g>
                <g id="Path_97593" transform="matrix(1,0,0,1,1289.87,306.717)">
                    <path d="M34.95,68.292C28.627,66.54 27.413,65.318 25.668,58.972C25.546,58.522 25.134,58.207 24.668,58.207C24.202,58.207 23.79,58.522 23.668,58.972C21.924,65.321 20.709,66.54 14.386,68.292C13.937,68.417 13.625,68.83 13.625,69.296C13.625,69.761 13.937,70.174 14.386,70.299C20.709,72.051 21.923,73.273 23.668,79.619C23.79,80.069 24.202,80.384 24.668,80.384C25.134,80.384 25.546,80.069 25.668,79.619C27.412,73.27 28.629,72.051 34.95,70.299C35.399,70.174 35.711,69.761 35.711,69.296C35.711,68.83 35.399,68.417 34.95,68.292Z" style="fill:rgb(141,198,65);fill-rule:nonzero;"/>
                </g>
            </g>
        </g>
    </g>
</svg>
